<?xml version="1.0" standalone="no"?>
<!DOCTYPE svg PUBLIC "-//W3C//DTD SVG 1.1//EN" "http://www.w3.org/Graphics/SVG/1.1/DTD/svg11.dtd" >
<svg xmlns="http://www.w3.org/2000/svg" xmlns:xlink="http://www.w3.org/1999/xlink" version="1.1">
<metadata>
Created by FontForge 20190801 at Wed May 16 11:54:05 2007
 By Jimmy Wärting
Copyright 1990-1999 as an unpublished work by Bitstream Inc.  All rights reserved.  Confidential.
</metadata>
<defs>
<font id="ZurichBT-BoldCondensed" horiz-adv-x="493" >
  <font-face 
    font-family="Zurich"
    font-weight="700"
    font-stretch="condensed"
    units-per-em="1000"
    panose-1="0 0 0 0 0 0 0 0 0 0"
    ascent="800"
    descent="-200"
    x-height="502"
    cap-height="720"
    bbox="-167 -236 1058 963"
    underline-thickness="100"
    underline-position="-148"
    stemh="87"
    stemv="141"
    unicode-range="U+0020-FB02"
  />
<missing-glyph horiz-adv-x="247" 
 />
    <glyph glyph-name=".notdef" horiz-adv-x="247" 
 />
    <glyph glyph-name="space" unicode=" " horiz-adv-x="247" 
 />
    <glyph glyph-name="exclam" unicode="!" horiz-adv-x="324" 
d="M110 193l-17 527h137l-17 -527h-103zM104 0v120h115v-120h-115z" />
    <glyph glyph-name="quotedbl" unicode="&#x22;" horiz-adv-x="331" 
d="M39 702h94v-273h-94v273zM198 702h94v-273h-94v273z" />
    <glyph glyph-name="numbersign" unicode="#" horiz-adv-x="769" 
d="M346 715h108l-71 -203h118l72 203h108l-72 -203h138l-36 -98h-137l-41 -118h142l-35 -98h-142l-72 -203h-108l72 203h-119l-73 -203h-107l71 203h-140l37 98h138l42 118h-146l36 98h145zM346 414l-43 -118h123l42 118h-122z" />
    <glyph glyph-name="dollar" unicode="$" 
d="M225 443v153c-40 -8 -61 -31 -61 -67c0 -40 18 -64 61 -86zM220 -86v86c-120 8 -184 75 -184 190c0 12 1 24 2 36h126c0 -6 -2 -12 -2 -17c0 -64 18 -96 63 -106v193c-126 65 -184 115 -184 214c0 103 63 167 179 182v79h54v-79c115 -5 175 -64 175 -172
c0 -7 -1 -14 -1 -21h-117v5c0 56 -17 85 -61 92v-171c129 -74 188 -125 188 -225c0 -117 -67 -190 -184 -200v-86h-54zM270 278v-174c40 10 63 38 63 81c0 40 -22 71 -63 93z" />
    <glyph glyph-name="percent" unicode="%" horiz-adv-x="773" 
d="M197 -12l293 720h81l-296 -720h-78zM336 526c0 -123 -46 -183 -143 -183s-143 60 -143 183s46 182 143 182s143 -59 143 -182zM723 183c0 -123 -46 -183 -143 -183s-143 60 -143 183s46 182 143 182s143 -59 143 -182zM193 420c35 0 50 34 50 106c0 71 -15 106 -50 106
s-49 -35 -49 -106c0 -72 14 -106 49 -106zM580 77c35 0 50 34 50 106c0 71 -15 106 -50 106s-49 -35 -49 -106c0 -72 14 -106 49 -106z" />
    <glyph glyph-name="ampersand" unicode="&#x26;" horiz-adv-x="578" 
d="M330 111v207h-32c-77 0 -106 -21 -106 -102c0 -90 29 -105 103 -105h35zM299 419h31v97h144v-97h89v-101h-89v-318h-229c-60 0 -108 3 -149 37c-42 35 -57 88 -57 165c0 96 41 147 133 164c-82 25 -109 79 -109 181c0 124 66 174 219 174h41v-112h-24
c-62 0 -83 -23 -83 -86c0 -70 25 -104 83 -104z" />
    <glyph glyph-name="quoteright" unicode="&#x2019;" horiz-adv-x="220" 
d="M31 527l35 193h125l-67 -193h-93z" />
    <glyph glyph-name="parenleft" unicode="(" horiz-adv-x="301" 
d="M172 -167c-71 202 -104 358 -104 461c0 78 28 228 102 437h83c-43 -179 -67 -326 -67 -448c0 -121 26 -270 64 -450h-78z" />
    <glyph glyph-name="parenright" unicode=")" horiz-adv-x="301" 
d="M127 -167h-79c38 180 64 329 64 450c0 122 -24 269 -67 448h84c74 -209 102 -359 102 -437c0 -104 -33 -259 -104 -461z" />
    <glyph glyph-name="asterisk" unicode="*" 
d="M247 490l-49 -130l-88 51l88 107l-137 -23v102l137 -23l-88 107l88 50l49 -129l48 129l88 -50l-88 -107l137 22v-101l-137 22l88 -107l-88 -50z" />
    <glyph glyph-name="plus" unicode="+" horiz-adv-x="833" 
d="M367 596h99v-249h243v-97h-243v-250h-99v250h-243v97h243v249z" />
    <glyph glyph-name="comma" unicode="," horiz-adv-x="247" 
d="M33 -96l44 230h121l-78 -230h-87z" />
    <glyph glyph-name="hyphen" unicode="-" horiz-adv-x="278" 
d="M16 183v136h246v-136h-246z" />
    <glyph glyph-name="period" unicode="." horiz-adv-x="247" 
d="M63 0v134h120v-134h-120z" />
    <glyph glyph-name="slash" unicode="/" horiz-adv-x="278" 
d="M28 -93h-81l295 824h81z" />
    <glyph glyph-name="zero" unicode="0" 
d="M179 348c0 -177 2 -256 68 -256s67 81 67 256s-1 256 -67 256s-68 -80 -68 -256zM247 709c60 0 110 -18 136 -42c62 -56 69 -145 69 -284v-84c0 -93 -3 -163 -30 -215c-33 -63 -93 -97 -175 -97c-64 0 -114 20 -150 60c-52 59 -56 140 -56 253v59c0 123 0 211 42 276
c30 47 89 74 164 74z" />
    <glyph glyph-name="one" unicode="1" 
d="M196 0v531c-47 -37 -85 -62 -118 -72v131c46 18 91 54 138 107h120v-697h-140z" />
    <glyph glyph-name="two" unicode="2" 
d="M43 0v127c178 213 267 352 267 418c0 40 -21 62 -57 62c-39 0 -60 -28 -60 -80c0 -7 0 -14 1 -21h-139c0 7 -1 13 -1 20c0 117 68 182 190 182c130 0 203 -63 203 -174c0 -125 -94 -249 -258 -429h261v-105h-407z" />
    <glyph glyph-name="three" unicode="3" 
d="M45 192h138c4 -69 19 -98 64 -98c44 0 58 33 58 104c0 88 -22 114 -103 114c-7 0 -15 -1 -24 -1v110h10c87 0 109 17 109 102c0 61 -18 91 -57 91c-33 0 -54 -28 -54 -81v-7h-135c-1 8 -1 16 -1 23c0 109 62 159 193 159c138 0 193 -56 193 -190c0 -84 -28 -133 -90 -149
c79 -20 102 -70 102 -172c0 -141 -68 -209 -211 -209c-129 0 -193 59 -193 179c0 8 0 16 1 25z" />
    <glyph glyph-name="four" unicode="4" 
d="M278 264l4 345c-18 -56 -37 -108 -58 -160l-76 -185h130zM261 0v162h-218v142l169 393h185v-433h53v-102h-53v-162h-136z" />
    <glyph glyph-name="five" unicode="5" 
d="M49 164h140c1 -50 18 -75 52 -75c49 0 63 45 63 144c0 91 -7 133 -53 133c-33 0 -52 -23 -60 -72h-132l11 403h350v-108h-220l-5 -173c29 31 63 43 107 43c103 0 142 -75 142 -227c0 -167 -60 -243 -206 -243c-125 0 -189 55 -189 161v14z" />
    <glyph glyph-name="six" unicode="6" 
d="M244 88c47 0 62 42 62 132c0 93 -14 136 -60 136c-48 0 -60 -41 -60 -130c0 -94 13 -138 58 -138zM185 407c26 27 62 45 110 45c104 0 153 -71 153 -215c0 -167 -63 -249 -200 -249c-162 0 -203 101 -203 328c0 139 1 235 34 296c34 64 92 96 172 96
c118 0 185 -57 185 -156v-4h-139c-1 42 -20 65 -52 65c-47 0 -62 -42 -62 -131c0 -22 0 -47 2 -75z" />
    <glyph glyph-name="seven" unicode="7" 
d="M109 0l187 592h-234v105h369v-119l-165 -578h-157z" />
    <glyph glyph-name="eight" unicode="8" 
d="M151 366c-64 20 -92 70 -92 156c0 124 65 187 189 187c121 0 186 -64 186 -187c0 -86 -28 -136 -92 -156c66 -23 103 -87 103 -182c0 -130 -67 -196 -200 -196c-132 0 -197 67 -197 202c0 90 39 154 103 176zM248 91c39 0 60 35 60 103c0 77 -24 118 -60 118
c-39 0 -63 -41 -63 -118c0 -68 22 -103 63 -103zM248 417c34 0 50 33 50 100c0 59 -19 91 -50 91c-35 0 -53 -31 -53 -91c0 -68 15 -100 53 -100z" />
    <glyph glyph-name="nine" unicode="9" 
d="M248 608c-47 0 -61 -43 -61 -133c0 -93 14 -135 60 -135c48 0 59 41 59 130c0 94 -13 138 -58 138zM308 289c-26 -27 -63 -46 -111 -46c-104 0 -152 72 -152 216c0 167 63 248 200 248c162 0 203 -100 203 -327c0 -139 -1 -235 -34 -296c-34 -64 -92 -96 -172 -96
c-118 0 -186 57 -186 156v4h139c3 -43 21 -66 52 -66c48 0 61 43 61 134v73z" />
    <glyph glyph-name="colon" unicode=":" horiz-adv-x="260" 
d="M70 368v134h120v-134h-120zM70 0v134h120v-134h-120z" />
    <glyph glyph-name="semicolon" unicode=";" horiz-adv-x="260" 
d="M72 368v134h120v-134h-120zM27 -96l45 230h120l-78 -230h-87z" />
    <glyph glyph-name="less" unicode="&#x3c;" horiz-adv-x="833" 
d="M704 583v-107l-436 -178l436 -178v-107l-575 237v97z" />
    <glyph glyph-name="equal" unicode="=" horiz-adv-x="833" 
d="M124 452h585v-97h-585v97zM124 242h585v-97h-585v97z" />
    <glyph glyph-name="greater" unicode="&#x3e;" horiz-adv-x="833" 
d="M129 583l575 -236v-97l-575 -237v107l437 178l-437 178v107z" />
    <glyph glyph-name="question" unicode="?" horiz-adv-x="417" 
d="M153 194v71c0 34 2 64 26 113c35 72 81 122 81 185c0 44 -19 69 -52 69c-44 0 -59 -33 -59 -106h-124c-1 8 -1 16 -1 23c0 118 66 183 182 183c118 0 186 -63 186 -169c0 -97 -44 -147 -92 -206c-24 -29 -45 -50 -45 -106v-57h-102zM148 0v120h114v-120h-114z" />
    <glyph glyph-name="at" unicode="@" horiz-adv-x="1000" 
d="M594 342c-8 53 -38 81 -85 81c-73 0 -138 -91 -138 -206c0 -60 27 -92 77 -92c52 0 103 42 120 111zM570 133c-36 -55 -82 -80 -145 -80c-104 0 -158 58 -158 166c0 158 105 275 236 275c53 0 91 -22 115 -64l26 48h87l-72 -292c-2 -8 -3 -15 -3 -20c0 -22 15 -34 46 -34
c24 0 53 12 79 37c56 52 85 123 85 206c0 152 -128 268 -324 268c-92 0 -171 -22 -236 -66c-110 -74 -172 -189 -172 -322c0 -200 146 -329 371 -329c106 0 209 33 295 93l40 -57c-100 -75 -212 -113 -333 -113c-127 0 -232 33 -312 94c-101 78 -151 180 -151 311
c0 109 35 209 101 290c96 117 233 179 400 179c113 0 212 -32 281 -85c88 -68 131 -155 131 -265c0 -108 -44 -201 -124 -265c-46 -37 -101 -56 -158 -56c-69 0 -104 27 -105 81z" />
    <glyph glyph-name="A" unicode="A" horiz-adv-x="616" 
d="M447 0l-39 160h-209l-38 -160h-151l203 720h192l200 -720h-158zM227 271h154l-75 312z" />
    <glyph glyph-name="B" unicode="B" horiz-adv-x="590" 
d="M64 0v720h255c141 0 211 -56 211 -175c0 -98 -47 -163 -120 -170c82 -14 131 -77 131 -172c0 -144 -70 -203 -218 -203h-259zM209 113h72c75 0 111 30 111 102c0 70 -35 102 -107 102h-76v-204zM209 428h85c61 0 90 31 90 96c0 54 -31 85 -90 85h-85v-181z" />
    <glyph glyph-name="C" unicode="C" horiz-adv-x="560" 
d="M520 246c1 -11 1 -22 1 -33c0 -144 -81 -224 -224 -224c-71 0 -130 21 -162 49c-72 62 -82 169 -82 339c0 119 8 206 50 269c35 53 102 83 193 83c145 0 220 -74 220 -221v-14h-151v14c0 76 -23 112 -72 112c-84 0 -89 -89 -89 -273c0 -167 12 -246 91 -246
c49 0 73 40 73 120c0 8 -1 16 -1 25h153z" />
    <glyph glyph-name="D" unicode="D" horiz-adv-x="616" 
d="M76 720h236c192 0 252 -102 252 -360s-60 -360 -252 -360h-236v720zM227 611v-498h65c112 0 126 77 126 249s-14 249 -126 249h-65z" />
    <glyph glyph-name="E" unicode="E" horiz-adv-x="499" 
d="M64 0v720h389v-111h-237v-172h218v-111h-218v-210h246v-116h-398z" />
    <glyph glyph-name="F" unicode="F" horiz-adv-x="480" 
d="M64 0v720h371v-111h-219v-172h209v-111h-209v-326h-152z" />
    <glyph glyph-name="G" unicode="G" horiz-adv-x="590" 
d="M535 379v-366c-79 -14 -150 -24 -214 -24c-86 0 -147 15 -186 49c-72 63 -82 170 -82 339c0 119 8 206 50 269c37 55 104 83 202 83c150 0 230 -76 230 -220v-11h-148v9c0 81 -28 120 -86 120c-88 0 -97 -81 -97 -265c0 -187 6 -268 119 -268c22 0 46 4 75 11v161h-83
v113h220z" />
    <glyph glyph-name="H" unicode="H" horiz-adv-x="593" 
d="M214 0h-150v720h150v-280h164v280h151v-720h-151v319h-164v-319z" />
    <glyph glyph-name="I" unicode="I" horiz-adv-x="278" 
d="M66 0v720h146v-720h-146z" />
    <glyph glyph-name="J" unicode="J" horiz-adv-x="507" 
d="M12 241h148c0 -10 -1 -20 -1 -29c0 -80 17 -117 62 -117c65 0 68 51 68 154v471h151v-490c0 -67 -1 -123 -37 -174c-35 -50 -93 -68 -181 -68c-146 0 -211 65 -211 213c0 13 0 26 1 40z" />
    <glyph glyph-name="K" unicode="K" horiz-adv-x="544" 
d="M64 0v720h150v-313l187 313h157l-208 -331l208 -389h-174l-170 350v-350h-150z" />
    <glyph glyph-name="L" unicode="L" horiz-adv-x="449" 
d="M64 0v720h152v-593h220v-127h-372z" />
    <glyph glyph-name="M" unicode="M" horiz-adv-x="834" 
d="M63 0v720h232l102 -441c8 -33 15 -83 22 -150c3 51 10 102 20 151l91 440h241v-720h-140l6 492c1 67 3 128 7 181l-150 -673h-144l-158 674c7 -68 8 -129 9 -182l9 -492h-147z" />
    <glyph glyph-name="N" unicode="N" horiz-adv-x="662" 
d="M64 0v720h202l138 -374c32 -86 57 -169 74 -250c-7 67 -10 136 -11 209l-8 415h139v-720h-197l-146 394c-19 52 -44 132 -73 243c7 -90 11 -159 12 -208l8 -429h-138z" />
    <glyph glyph-name="O" unicode="O" horiz-adv-x="593" 
d="M203 362c0 -178 11 -261 92 -261c86 0 94 84 94 268c0 172 -12 248 -92 248c-82 0 -94 -77 -94 -255zM297 -11c-71 0 -130 21 -162 49c-68 59 -83 164 -83 330c0 127 9 217 50 278c35 53 103 83 194 83c72 0 130 -20 165 -51c65 -57 79 -153 79 -301
c0 -138 -5 -235 -51 -304c-35 -52 -104 -84 -192 -84z" />
    <glyph glyph-name="P" unicode="P" horiz-adv-x="556" 
d="M219 607v-202h50c80 0 109 17 109 103c0 79 -26 99 -96 99h-63zM306 720c162 0 225 -48 225 -216c0 -77 -19 -135 -51 -168c-44 -46 -97 -47 -164 -47h-95v-289h-157v720h242z" />
    <glyph glyph-name="Q" unicode="Q" horiz-adv-x="593" 
d="M203 362c0 -178 10 -261 91 -261c86 0 94 84 94 268c0 172 -12 248 -92 248c-82 0 -93 -77 -93 -255zM476 91c32 11 67 15 105 15h27v-106h-182c-29 0 -74 -9 -135 -9c-69 0 -120 14 -157 47c-74 65 -82 172 -82 340c0 119 8 205 50 268c35 53 103 83 194 83
s158 -31 194 -84c42 -63 50 -155 50 -287c0 -138 -14 -223 -64 -267z" />
    <glyph glyph-name="R" unicode="R" horiz-adv-x="562" 
d="M215 409h37c77 0 108 24 108 103c0 77 -26 96 -105 96h-40v-199zM278 720c165 0 227 -36 227 -185c0 -105 -26 -159 -105 -179c98 -20 111 -64 111 -171c0 -12 -1 -24 -1 -36c0 -56 4 -105 19 -149h-157c-13 45 -10 112 -12 199c-2 69 -22 98 -82 98h-63v-297h-151v720
h214z" />
    <glyph glyph-name="S" unicode="S" horiz-adv-x="551" 
d="M45 222h153v-19c0 -73 22 -103 82 -103c45 0 75 30 75 79c0 54 -41 78 -105 120c-62 40 -104 69 -125 88c-48 44 -69 79 -69 147c0 120 88 198 228 198c144 0 217 -67 217 -198v-19h-149v4c0 68 -25 102 -73 102c-45 0 -73 -29 -73 -74c0 -70 71 -98 175 -163
c85 -54 126 -101 126 -185c0 -139 -82 -211 -244 -211c-151 0 -219 65 -219 209c0 8 1 16 1 25z" />
    <glyph glyph-name="T" unicode="T" horiz-adv-x="505" 
d="M178 0v602h-164v118h484v-118h-165v-602h-155z" />
    <glyph glyph-name="U" unicode="U" horiz-adv-x="618" 
d="M554 720v-451c0 -194 -64 -281 -245 -281c-169 0 -245 84 -245 260v472h150v-433c0 -128 5 -190 97 -190c84 0 95 62 95 190v433h148z" />
    <glyph glyph-name="V" unicode="V" horiz-adv-x="551" 
d="M181 -1l-179 721h155l74 -376c18 -89 33 -167 40 -236c10 92 23 171 38 236l86 376h152l-188 -721h-178z" />
    <glyph glyph-name="W" unicode="W" horiz-adv-x="894" 
d="M156 0l-154 720h155l52 -323c6 -37 18 -130 32 -277c11 90 26 184 47 279l71 321h175l64 -325c9 -46 23 -138 40 -275c11 94 28 187 48 279l71 321h132l-161 -720h-168l-79 382c-11 53 -21 126 -31 218c-9 -72 -24 -145 -41 -219l-87 -381h-166z" />
    <glyph glyph-name="X" unicode="X" horiz-adv-x="556" 
d="M389 0l-119 261l-116 -261h-151l185 379l-172 341h162l110 -242l107 242h154l-180 -355l183 -365h-163z" />
    <glyph glyph-name="Y" unicode="Y" horiz-adv-x="535" 
d="M183 0v271l-188 449h167l104 -300l116 300h157l-203 -449v-271h-153z" />
    <glyph glyph-name="Z" unicode="Z" horiz-adv-x="463" 
d="M2 0v124l298 480h-284v116h435v-128l-294 -474h304v-118h-459z" />
    <glyph glyph-name="bracketleft" unicode="[" horiz-adv-x="301" 
d="M284 -174h-211v894h211v-84h-102v-727h102v-83z" />
    <glyph glyph-name="backslash" unicode="\" horiz-adv-x="278" 
d="M323 -93h-81l-296 824h81z" />
    <glyph glyph-name="bracketright" unicode="]" horiz-adv-x="301" 
d="M12 -174v83h102v727h-102v84h210v-894h-210z" />
    <glyph glyph-name="asciicircum" unicode="^" horiz-adv-x="1000" 
d="M438 713h123l235 -274h-115l-181 181l-182 -181h-115z" />
    <glyph glyph-name="underscore" unicode="_" horiz-adv-x="500" 
d="M0 -136h500v-100h-500v100z" />
    <glyph glyph-name="quoteleft" unicode="&#x2018;" horiz-adv-x="220" 
d="M188 720l-31 -193h-126l68 193h89z" />
    <glyph glyph-name="a" unicode="a" horiz-adv-x="486" 
d="M303 249c-96 0 -133 -20 -133 -92c0 -50 21 -78 54 -78c49 0 79 42 79 126v44zM50 371v10c0 86 67 133 197 133c128 0 185 -45 185 -146v-250c0 -42 3 -82 10 -118h-125l-11 57c-25 -36 -79 -61 -135 -61c-83 0 -135 60 -135 157c0 115 70 164 223 170l44 2v23
c0 65 -13 94 -56 94c-44 0 -67 -24 -67 -71h-130z" />
    <glyph glyph-name="b" unicode="b" horiz-adv-x="486" 
d="M50 720h139v-259c29 37 66 54 113 54c110 0 144 -83 144 -255c0 -94 -3 -162 -30 -209c-22 -39 -65 -62 -117 -62c-51 0 -91 22 -111 60l-4 -48h-138c3 45 4 82 4 111v608zM188 310v-108c0 -88 10 -129 61 -129c56 0 57 54 57 172v12c0 111 -6 168 -59 168
c-40 0 -59 -38 -59 -115z" />
    <glyph glyph-name="c" unicode="c" horiz-adv-x="486" 
d="M311 186h140c0 -131 -67 -197 -204 -197c-166 0 -208 78 -208 273c0 175 55 252 208 252c131 0 204 -67 204 -184v-5h-140v5c0 64 -21 96 -65 96c-56 0 -65 -50 -65 -170c0 -126 11 -180 66 -180c41 0 64 35 64 101v9z" />
    <glyph glyph-name="d" unicode="d" horiz-adv-x="486" 
d="M297 461v259h137v-608c0 -29 1 -66 4 -111h-137l-5 48c-20 -38 -60 -60 -111 -60c-41 0 -77 16 -99 39c-43 45 -47 119 -47 232c0 171 33 255 141 255c49 0 87 -16 117 -54zM296 310c0 77 -19 115 -59 115c-53 0 -59 -57 -59 -168v-12c0 -118 1 -172 57 -172
c51 0 61 41 61 129v108z" />
    <glyph glyph-name="e" unicode="e" horiz-adv-x="486" 
d="M311 186h140c0 -131 -67 -197 -204 -197c-166 0 -208 78 -208 273c0 175 55 252 208 252c138 0 204 -66 204 -202v-76h-268v-52c0 -74 18 -108 63 -108c42 0 65 34 65 101v9zM183 315h126v42c0 48 -23 75 -62 75c-42 0 -64 -33 -64 -100v-17z" />
    <glyph glyph-name="f" unicode="f" horiz-adv-x="304" 
d="M73 0v419h-71v83h71v84c0 111 25 145 163 145c19 0 40 -1 65 -3v-99c-8 1 -16 1 -23 1c-55 0 -66 -19 -66 -74v-54h89v-83h-89v-419h-139z" />
    <glyph glyph-name="g" unicode="g" horiz-adv-x="486" 
d="M434 10c0 -147 -44 -207 -198 -207c-121 0 -187 51 -187 139v6h135c2 -47 17 -63 56 -63c53 0 54 33 54 101v57c-34 -37 -72 -55 -115 -55c-107 0 -140 84 -140 255c0 94 2 162 29 209c22 39 65 62 117 62c51 0 91 -22 111 -60l5 48h137c-3 -45 -4 -81 -4 -111v-381z
M296 302c0 88 -10 128 -61 128c-56 0 -57 -54 -57 -172v-12c0 -111 6 -168 59 -168c40 0 59 38 59 115v109z" />
    <glyph glyph-name="h" unicode="h" horiz-adv-x="492" 
d="M193 0h-141v720h141v-270c23 42 62 64 112 64c88 0 136 -46 136 -132v-382h-141v343c0 56 -8 85 -47 85c-36 0 -60 -27 -60 -71v-357z" />
    <glyph glyph-name="i" unicode="i" horiz-adv-x="237" 
d="M189 720v-119h-141v119h141zM189 502v-502h-141v502h141z" />
    <glyph glyph-name="j" unicode="j" horiz-adv-x="242" 
d="M194 502v-535c0 -119 -26 -164 -147 -164c-10 0 -20 0 -32 1v97c39 4 40 27 40 79v522h139zM194 720v-119h-139v119h139z" />
    <glyph glyph-name="k" unicode="k" horiz-adv-x="484" 
d="M56 0v720h140v-423l128 205h141l-147 -219l164 -283h-153l-133 263v-263h-140z" />
    <glyph glyph-name="l" unicode="l" horiz-adv-x="237" 
d="M49 0v720h139v-720h-139z" />
    <glyph glyph-name="m" unicode="m" horiz-adv-x="739" 
d="M193 450c23 42 62 64 112 64c66 0 111 -28 129 -77c26 51 65 77 119 77c88 0 136 -46 136 -132v-382h-141v343c0 56 -7 85 -46 85c-36 0 -61 -27 -61 -71v-357h-141v343c0 56 -8 85 -47 85c-36 0 -60 -27 -60 -71v-357h-141v412c0 27 0 57 -5 90h142z" />
    <glyph glyph-name="n" unicode="n" horiz-adv-x="492" 
d="M193 0h-141v412c0 27 0 57 -5 90h142l4 -52c23 42 62 64 112 64c88 0 136 -46 136 -132v-382h-141v343c0 56 -8 85 -47 85c-36 0 -60 -27 -60 -71v-357z" />
    <glyph glyph-name="o" unicode="o" 
d="M181 256c0 -126 11 -180 66 -180s66 54 66 180c0 121 -9 170 -67 170c-56 0 -65 -50 -65 -170zM250 514c150 0 204 -78 204 -252c0 -195 -41 -273 -207 -273s-208 78 -208 273c0 176 55 252 211 252z" />
    <glyph glyph-name="p" unicode="p" horiz-adv-x="486" 
d="M52 -190v581c0 34 -2 70 -5 111h138l5 -48c20 38 60 60 111 60c41 0 77 -16 99 -39c43 -45 47 -119 47 -232c0 -172 -32 -255 -143 -255c-47 0 -84 17 -113 54v-232h-139zM190 302v-109c0 -77 19 -115 59 -115c53 0 58 57 58 168v12c0 118 -1 172 -57 172
c-51 0 -60 -40 -60 -128z" />
    <glyph glyph-name="q" unicode="q" horiz-adv-x="486" 
d="M297 -190v232c-29 -37 -68 -55 -115 -55c-110 0 -143 84 -143 256c0 94 2 162 29 209c22 39 65 62 117 62c51 0 91 -22 111 -60l5 48h137c-3 -45 -4 -81 -4 -111v-581h-137zM296 193v109c0 88 -10 128 -61 128c-56 0 -57 -54 -57 -172v-12c0 -111 6 -168 59 -168
c40 0 59 38 59 115z" />
    <glyph glyph-name="r" unicode="r" horiz-adv-x="333" 
d="M52 0v503h123l9 -66c18 49 61 77 123 77h9v-122h-13c-81 0 -110 -37 -110 -122v-270h-141z" />
    <glyph glyph-name="s" unicode="s" horiz-adv-x="449" 
d="M32 166h137v-10c0 -52 21 -81 51 -81c39 0 63 21 63 52c0 47 -48 64 -128 107c-78 42 -122 66 -122 141c0 83 71 141 182 141c121 0 184 -47 184 -136c0 -5 -1 -10 -1 -16h-132c1 6 1 11 1 16c0 40 -17 60 -51 60c-30 0 -51 -18 -51 -44c0 -43 59 -60 147 -112
c71 -42 105 -76 105 -142c0 -98 -72 -149 -215 -149c-110 0 -171 55 -171 153c0 6 0 13 1 20z" />
    <glyph glyph-name="t" unicode="t" horiz-adv-x="303" 
d="M294 3c-49 -6 -82 -8 -101 -8c-88 0 -127 41 -127 132v290h-65v85h65v85l138 61v-146h90v-85h-90v-272c0 -48 7 -61 52 -61c10 0 23 1 38 2v-83z" />
    <glyph glyph-name="u" unicode="u" horiz-adv-x="492" 
d="M297 502h142v-435c0 -20 0 -42 4 -66h-141l-5 53c-23 -42 -61 -65 -111 -65c-88 0 -136 47 -136 133v380h141v-342c0 -56 7 -85 46 -85c36 0 60 27 60 71v356z" />
    <glyph glyph-name="v" unicode="v" horiz-adv-x="454" 
d="M142 0l-128 502h144l36 -202c10 -56 19 -130 26 -220c11 84 30 155 46 217l54 205h136l-161 -502h-153z" />
    <glyph glyph-name="w" unicode="w" horiz-adv-x="785" 
d="M141 0l-129 502h144l38 -207c14 -76 22 -142 23 -200c12 65 28 134 47 205l55 202h146l65 -253c13 -50 21 -101 26 -154c6 66 18 117 25 154l50 253h141l-140 -502h-151l-61 229c-14 54 -23 110 -27 169c-11 -69 -22 -126 -36 -171l-69 -227h-147z" />
    <glyph glyph-name="x" unicode="x" horiz-adv-x="503" 
d="M155 0h-142l153 268l-139 234h152l79 -155l83 155h140l-136 -236l147 -266h-154l-88 185z" />
    <glyph glyph-name="y" unicode="y" horiz-adv-x="451" 
d="M100 -190l55 178l-146 514h141l76 -360l90 360h137l-209 -692h-144z" />
    <glyph glyph-name="z" unicode="z" horiz-adv-x="396" 
d="M25 0v108l199 309h-188v85h334v-90l-199 -319h199v-93h-345z" />
    <glyph glyph-name="braceleft" unicode="{" horiz-adv-x="500" 
d="M431 721v-102c-8 0 -16 1 -23 1c-72 0 -84 -25 -84 -98v-117c0 -88 -18 -127 -101 -146c83 -19 101 -57 101 -145v-118c0 -73 12 -97 84 -97c7 0 15 1 23 1v-102c-13 0 -25 -1 -37 -1c-60 0 -104 6 -137 24c-47 27 -51 71 -51 142v123c0 88 -29 123 -109 123
c-6 0 -13 -1 -20 -1v102c7 0 14 -1 20 -1c80 0 109 36 109 124v122c0 71 4 116 51 143c33 18 77 24 137 24c12 0 24 -1 37 -1z" />
    <glyph glyph-name="bar" unicode="|" horiz-adv-x="500" 
d="M200 764h101v-1000h-101v1000z" />
    <glyph glyph-name="braceright" unicode="}" horiz-adv-x="500" 
d="M70 721h33c62 0 108 -5 141 -24c46 -26 51 -71 51 -142v-123c0 -88 29 -123 109 -123c6 0 13 1 20 1v-102h-18c-82 0 -111 -33 -111 -122v-123c0 -71 -4 -116 -51 -142c-33 -18 -77 -24 -137 -24c-12 0 -24 1 -37 1v102c8 0 16 -1 23 -1c71 0 84 24 84 97v117
c0 88 17 127 101 146c-83 19 -101 58 -101 146v118c0 73 -13 97 -84 97c-7 0 -15 -1 -23 -1v102z" />
    <glyph glyph-name="asciitilde" unicode="~" horiz-adv-x="833" 
d="M747 392v-108c-65 -44 -124 -67 -185 -67c-30 0 -60 5 -90 15c-69 23 -130 49 -197 49c-59 0 -118 -27 -188 -77v108c70 47 133 70 189 70c58 0 102 -15 144 -29c48 -16 93 -36 144 -36c59 0 116 26 183 75z" />
    <glyph glyph-name="exclamdown" unicode="&#xa1;" horiz-adv-x="324" 
d="M213 527l17 -527h-136l16 527h103zM219 720v-120h-114v120h114z" />
    <glyph glyph-name="cent" unicode="&#xa2;" 
d="M324 325v7c0 27 -5 49 -16 68l-84 -326c9 -2 18 -3 26 -3c47 0 73 36 73 105v10h128v-3c0 -125 -69 -194 -196 -194c-11 0 -27 0 -48 2l-24 -82h-53l22 93c-93 33 -113 111 -113 260c0 175 55 251 202 251c14 0 28 -1 43 -2l22 84h56l-23 -96c76 -27 112 -82 112 -170v-4
h-127zM185 111l83 317c-9 2 -18 2 -25 2c-63 0 -73 -55 -73 -181c0 -50 4 -96 15 -138z" />
    <glyph glyph-name="sterling" unicode="&#xa3;" 
d="M35 0v102h62v220h-62v100h62v69c0 56 1 105 29 149c29 45 80 69 150 69c109 0 166 -54 166 -159v-16h-109c-1 54 -18 77 -59 77c-49 0 -52 -33 -52 -86v-103h122v-100h-122v-220h219v-102h-406z" />
    <glyph glyph-name="fraction" unicode="&#x2044;" horiz-adv-x="167" 
d="M-167 -12l415 720h85l-414 -720h-86z" />
    <glyph glyph-name="yen" unicode="&#xa5;" 
d="M510 697l-92 -199h70v-75h-103l-41 -86h144v-75h-175v-262h-138v262h-169v75h138l-36 86h-102v75h70l-83 199h157l101 -290l111 290h148z" />
    <glyph glyph-name="florin" unicode="&#x192;" 
d="M217 512c15 70 24 122 58 156c29 29 71 41 130 41c24 0 50 -2 76 -5l-20 -95c-9 1 -16 1 -23 1c-59 0 -66 -33 -84 -112l-20 -91h88l-22 -104h-89l-70 -315c-17 -75 -29 -127 -59 -157c-28 -29 -73 -40 -139 -40c-20 0 -42 2 -66 4l20 95c9 -1 16 -1 23 -1
c57 0 66 33 84 112l67 302h-99l22 104h100z" />
    <glyph glyph-name="section" unicode="&#xa7;" 
d="M257 297c38 23 56 40 56 69c0 32 -20 49 -63 73c-48 -16 -69 -35 -69 -70s25 -56 76 -72zM63 19v119c64 -27 115 -42 156 -42c39 0 61 18 61 44c0 40 -54 47 -130 82c-65 30 -97 71 -97 124c0 50 32 97 94 132c-47 32 -70 70 -70 116c0 79 67 137 176 137
c52 0 105 -10 163 -30v-115c-64 28 -110 44 -146 44c-34 0 -54 -16 -54 -39c0 -37 41 -44 100 -74c83 -41 124 -73 124 -137c0 -49 -28 -85 -83 -130c49 -34 73 -68 73 -114c0 -91 -73 -148 -215 -148c-55 0 -106 10 -152 31z" />
    <glyph glyph-name="currency" unicode="&#xa4;" 
d="M331 203h138v-12c0 -127 -78 -202 -197 -202c-139 0 -207 86 -214 264h-68l32 71h31v70h-72l32 72h45c5 178 74 263 214 263c126 0 193 -68 193 -200v-14h-137v15c0 64 -18 94 -59 94c-50 0 -72 -51 -73 -158h177l-32 -72h-145v-70h114l-32 -71h-82v-19
c0 -89 28 -140 74 -140c37 0 61 34 61 101v8z" />
    <glyph glyph-name="quotesingle" unicode="'" horiz-adv-x="172" 
d="M39 702h94v-273h-94v273z" />
    <glyph glyph-name="quotedblleft" unicode="&#x201c;" horiz-adv-x="391" 
d="M359 720l-29 -193h-128l69 193h88zM189 720l-29 -193h-129l70 193h88z" />
    <glyph glyph-name="guillemotleft" unicode="&#xab;" horiz-adv-x="465" 
d="M135 62l-93 185l93 193h113l-85 -193l85 -185h-113zM307 62l-91 185l91 193h116l-87 -193l87 -185h-116z" />
    <glyph glyph-name="guilsinglleft" unicode="&#x2039;" horiz-adv-x="266" 
d="M121 62l-91 185l91 193h116l-88 -193l88 -185h-116z" />
    <glyph glyph-name="guilsinglright" unicode="&#x203a;" horiz-adv-x="266" 
d="M145 62h-115l87 185l-87 193h115l92 -193z" />
    <glyph glyph-name="fi" unicode="&#xfb01;" horiz-adv-x="517" 
d="M464 502v-502h-141v502h141zM464 720v-119h-141v119h141zM68 0v419h-71v83h71v84c0 111 25 145 163 145c19 0 41 -1 66 -3v-99c-8 1 -16 1 -23 1c-55 0 -67 -19 -67 -74v-54h90v-83h-90v-419h-139z" />
    <glyph glyph-name="fl" unicode="&#xfb02;" horiz-adv-x="517" 
d="M326 0v720h139v-720h-139zM68 0v419h-71v83h71v84c0 111 25 145 163 145c19 0 40 -1 65 -3v-99c-8 1 -16 1 -23 1c-55 0 -66 -19 -66 -74v-54h89v-83h-89v-419h-139z" />
    <glyph glyph-name="endash" unicode="&#x2013;" horiz-adv-x="500" 
d="M0 201v100h500v-100h-500z" />
    <glyph glyph-name="dagger" unicode="&#x2020;" 
d="M190 0v468h-156v97h156v155h112v-155h157v-97h-157v-468h-112z" />
    <glyph glyph-name="daggerdbl" unicode="&#x2021;" 
d="M190 0v142h-156v92h156v236h-156v92h156v158h112v-158h157v-92h-157v-236h157v-92h-157v-142h-112z" />
    <glyph glyph-name="periodcentered" unicode="&#xb7;" horiz-adv-x="247" 
d="M50 349c0 40 31 71 71 71s71 -31 71 -71s-31 -71 -71 -71s-71 31 -71 71z" />
    <glyph glyph-name="paragraph" unicode="&#xb6;" horiz-adv-x="500" 
d="M480 722v-54h-55v-668h-74v668h-78v-668h-74v383c-111 4 -179 73 -179 169c0 100 73 170 191 170h269z" />
    <glyph glyph-name="bullet" unicode="&#x2022;" horiz-adv-x="590" 
d="M150 372c0 80 65 144 145 144c79 0 144 -64 144 -144c0 -79 -65 -145 -145 -145s-144 65 -144 145z" />
    <glyph glyph-name="quotesinglbase" unicode="&#x201a;" horiz-adv-x="220" 
d="M14 -96l30 193h127l-68 -193h-89z" />
    <glyph glyph-name="quotedblbase" unicode="&#x201e;" horiz-adv-x="391" 
d="M31 -96l31 193h127l-68 -193h-90zM201 -96l32 193h127l-68 -193h-91z" />
    <glyph glyph-name="quotedblright" unicode="&#x201d;" horiz-adv-x="391" 
d="M31 527l31 193h127l-68 -193h-90zM201 527l32 193h127l-68 -193h-91z" />
    <glyph glyph-name="guillemotright" unicode="&#xbb;" horiz-adv-x="465" 
d="M330 62h-113l85 185l-85 193h113l93 -193zM158 62h-116l87 185l-87 193h116l91 -193z" />
    <glyph glyph-name="ellipsis" unicode="&#x2026;" horiz-adv-x="1000" 
d="M106 0v134h120v-134h-120zM439 0v134h120v-134h-120zM773 0v134h120v-134h-120z" />
    <glyph glyph-name="perthousand" unicode="&#x2030;" horiz-adv-x="1108" 
d="M197 -12l293 720h81l-296 -720h-78zM336 526c0 -123 -46 -183 -143 -183s-143 60 -143 183s46 182 143 182s143 -59 143 -182zM723 183c0 -123 -46 -183 -143 -183s-143 60 -143 183s46 182 143 182s143 -59 143 -182zM1058 183c0 -123 -46 -183 -143 -183
s-143 60 -143 183s46 182 143 182s143 -59 143 -182zM193 420c35 0 50 34 50 106c0 71 -15 106 -50 106s-49 -35 -49 -106c0 -72 14 -106 49 -106zM580 77c35 0 50 34 50 106c0 71 -15 106 -50 106s-49 -35 -49 -106c0 -72 14 -106 49 -106zM915 77c35 0 50 34 50 106
c0 71 -15 106 -50 106s-49 -35 -49 -106c0 -72 14 -106 49 -106z" />
    <glyph glyph-name="questiondown" unicode="&#xbf;" horiz-adv-x="417" 
d="M264 524v-71c0 -34 -2 -64 -26 -113c-35 -72 -82 -122 -82 -185c0 -44 20 -69 53 -69c44 0 59 33 59 106h124c1 -8 1 -15 1 -23c0 -117 -67 -183 -183 -183c-118 0 -185 63 -185 169c0 97 44 147 92 206c24 29 45 50 45 106v57h102zM269 720v-120h-115v120h115z" />
    <glyph glyph-name="grave" unicode="`" horiz-adv-x="500" 
d="M107 745h126l96 -180h-69z" />
    <glyph glyph-name="acute" unicode="&#xb4;" horiz-adv-x="500" 
d="M393 745l-153 -180h-69l96 180h126z" />
    <glyph glyph-name="circumflex" unicode="&#x2c6;" horiz-adv-x="500" 
d="M96 565l96 180h116l96 -180h-69l-85 106l-86 -106h-68z" />
    <glyph glyph-name="tilde" unicode="&#x2dc;" horiz-adv-x="500" 
d="M394 722c-16 -80 -45 -119 -95 -119c-10 0 -21 1 -33 5l-40 13c-13 4 -23 5 -30 5c-20 0 -31 -11 -36 -38h-54c15 78 44 115 93 115c11 0 25 -2 40 -7l41 -12c8 -3 16 -4 25 -4c20 0 31 14 35 42h54z" />
    <glyph glyph-name="macron" unicode="&#xaf;" horiz-adv-x="500" 
d="M120 617v74h261v-74h-261z" />
    <glyph glyph-name="breve" unicode="&#x2d8;" horiz-adv-x="500" 
d="M110 729h58c3 -50 29 -73 82 -73s78 22 82 73h58c-6 -101 -50 -148 -140 -148c-89 0 -134 47 -140 148z" />
    <glyph glyph-name="dotaccent" unicode="&#x2d9;" horiz-adv-x="500" 
d="M193 591v125h115v-125h-115z" />
    <glyph glyph-name="dieresis" unicode="&#xa8;" horiz-adv-x="500" 
d="M110 594v119h110v-119h-110zM280 594v119h110v-119h-110z" />
    <glyph glyph-name="ring" unicode="&#x2da;" horiz-adv-x="500" 
d="M121 685c0 72 56 130 129 130s130 -58 130 -130c0 -73 -57 -130 -130 -130s-129 57 -129 130zM191 685c0 -34 25 -59 59 -59s60 26 60 59s-27 60 -60 60c-34 0 -59 -26 -59 -60z" />
    <glyph glyph-name="cedilla" unicode="&#xb8;" horiz-adv-x="500" 
d="M113 -214v63c57 -15 98 -21 125 -21c34 0 49 11 49 36s-18 34 -59 34c-9 0 -18 0 -28 -1v103h50v-44h7c76 0 115 -31 115 -93c0 -65 -42 -98 -129 -98c-30 0 -74 6 -130 21z" />
    <glyph glyph-name="hungarumlaut" unicode="&#x2dd;" horiz-adv-x="500" 
d="M144 565l56 180h108l-113 -180h-51zM275 565l75 180h112l-132 -180h-55z" />
    <glyph glyph-name="ogonek" unicode="&#x2db;" horiz-adv-x="500" 
d="M306 0c-42 -34 -62 -68 -62 -100c0 -26 13 -39 40 -39h50v-85h-52c-77 0 -116 31 -116 90c0 49 31 89 93 134h47z" />
    <glyph glyph-name="caron" unicode="&#x2c7;" horiz-adv-x="500" 
d="M96 745h68l86 -106l85 106h69l-96 -180h-116z" />
    <glyph glyph-name="emdash" unicode="&#x2014;" horiz-adv-x="1000" 
d="M0 301h1000v-100h-1000v100z" />
    <glyph glyph-name="AE" unicode="&#xc6;" horiz-adv-x="766" 
d="M283 632l-87 -364h144zM384 0l-25 157h-188l-38 -157h-140l182 720h544v-109h-295l30 -174h247v-111h-226l38 -210h215v-116h-344z" />
    <glyph glyph-name="ordfeminine" unicode="&#xaa;" horiz-adv-x="365" 
d="M227 542c-72 0 -99 -14 -99 -64c0 -35 15 -55 40 -55c37 0 59 30 59 88v31zM38 628v7c0 60 50 93 147 93c96 0 139 -32 139 -102v-175c0 -30 2 -58 8 -83h-94l-8 40c-19 -25 -60 -43 -102 -43c-62 0 -101 42 -101 110c0 81 53 115 167 119l33 1v17c0 45 -9 65 -42 65
s-50 -16 -50 -49h-97z" />
    <glyph glyph-name="Lslash" unicode="&#x141;" horiz-adv-x="456" 
d="M71 0v272l-78 -56v117l78 55v332h152v-268l120 84v-116l-120 -84v-209h220v-127h-372z" />
    <glyph glyph-name="Oslash" unicode="&#xd8;" horiz-adv-x="593" 
d="M137 36l-59 -84l-62 41l72 106c-30 60 -35 153 -35 283c0 243 56 350 249 350c72 0 125 -20 165 -64l55 77l61 -41l-71 -105c22 -50 28 -124 28 -225c0 -135 -5 -232 -51 -302c-34 -51 -103 -83 -189 -83c-72 0 -128 17 -163 47zM204 259l177 263c-3 62 -33 95 -84 95
c-85 0 -94 -84 -94 -276c0 -9 1 -37 1 -82zM387 426l-171 -256c9 -44 39 -69 79 -69c76 0 94 70 94 226c0 30 -1 63 -2 99z" />
    <glyph glyph-name="OE" unicode="&#x152;" horiz-adv-x="840" 
d="M777 437v-111h-217v-210h245v-116h-398c-33 0 -65 -5 -95 -5c-81 0 -140 17 -177 48c-72 62 -82 167 -82 335c0 118 7 203 49 265c41 61 105 80 204 80c29 0 63 -3 101 -3h389v-111h-236v-172h217zM408 607h-61c-45 0 -77 0 -101 -20c-36 -31 -42 -98 -42 -211
s0 -187 26 -223c26 -37 60 -37 117 -37h61v491z" />
    <glyph glyph-name="ordmasculine" unicode="&#xba;" horiz-adv-x="370" 
d="M136 547c0 -88 8 -126 49 -126c42 0 50 38 50 126c0 85 -7 119 -50 119c-42 0 -49 -35 -49 -119zM188 728c112 0 153 -55 153 -177c0 -136 -31 -191 -156 -191c-124 0 -156 55 -156 191c0 124 42 177 159 177z" />
    <glyph glyph-name="ae" unicode="&#xe6;" horiz-adv-x="740" 
d="M308 249c-97 0 -133 -20 -133 -92c0 -50 21 -78 54 -78c49 0 79 42 79 126v44zM563 315v42c0 48 -23 75 -61 75c-45 0 -65 -34 -65 -102v-15h126zM437 236v-52c0 -74 17 -108 62 -108c42 0 66 34 66 102v8h140c0 -131 -68 -197 -205 -197c-85 0 -139 21 -170 72
c-44 -45 -87 -66 -142 -66c-96 0 -148 57 -148 158c0 115 70 164 223 170l44 2v23c0 64 -12 94 -56 94s-66 -24 -66 -71h-130v11c0 84 67 132 191 132c64 0 106 -13 133 -46c34 32 78 46 134 46c124 0 192 -68 192 -202v-76h-268z" />
    <glyph glyph-name="dotlessi" unicode="&#x131;" horiz-adv-x="237" 
d="M189 502v-502h-141v502h141z" />
    <glyph glyph-name="lslash" unicode="&#x142;" horiz-adv-x="251" 
d="M56 0v292l-61 -42v90l61 42v338h139v-279l61 42v-90l-61 -42v-351h-139z" />
    <glyph glyph-name="oslash" unicode="&#xf8;" 
d="M13 -10l61 74c-29 40 -34 106 -34 204c0 171 56 246 207 246c62 0 109 -15 147 -48l50 61l40 -32l-56 -72c21 -36 25 -91 25 -168c0 -187 -43 -267 -206 -267c-55 0 -99 7 -138 35l-53 -64zM318 298l-134 -170c6 -36 30 -56 63 -56c61 0 71 57 71 184v42zM176 187
l136 173c0 45 -24 69 -66 69c-59 0 -72 -47 -72 -157c0 -25 1 -53 2 -85z" />
    <glyph glyph-name="oe" unicode="&#x153;" horiz-adv-x="756" 
d="M180 256c0 -127 14 -180 72 -180c59 0 71 53 71 180c0 122 -10 170 -72 170c-61 0 -71 -50 -71 -170zM580 315v42c0 47 -24 74 -61 74c-46 0 -65 -32 -65 -101v-15h126zM381 43c-39 -39 -82 -54 -139 -54c-161 0 -203 81 -203 273c0 176 55 252 208 252
c58 0 103 -16 138 -52c41 37 85 52 143 52c128 0 194 -68 194 -202v-76h-269v-52c0 -74 18 -108 63 -108c42 0 65 34 65 101v9h141v-5c0 -124 -71 -192 -196 -192c-64 0 -111 17 -145 54z" />
    <glyph glyph-name="germandbls" unicode="&#xdf;" horiz-adv-x="531" 
d="M47 0v527c0 140 70 202 225 202c127 0 194 -54 194 -148c0 -44 -16 -70 -43 -102c-24 -28 -46 -44 -46 -69c0 -30 36 -67 93 -128c33 -35 48 -72 48 -118c0 -107 -70 -169 -197 -169c-21 0 -43 2 -66 5v97c16 -2 31 -3 44 -3c60 0 89 19 89 57s-34 72 -79 124
c-40 46 -66 74 -66 109c0 36 21 55 42 80c31 37 54 66 54 108c0 40 -32 72 -74 72c-23 0 -46 -9 -59 -24c-18 -19 -20 -46 -20 -81v-539h-139z" />
    <glyph glyph-name="Aacute" unicode="&#xc1;" horiz-adv-x="616" 
d="M447 0l-39 160h-209l-38 -160h-151l203 720h192l200 -720h-158zM227 271h154l-75 312zM451 963l-153 -180h-69l96 180h126z" />
    <glyph glyph-name="Acircumflex" unicode="&#xc2;" horiz-adv-x="616" 
d="M447 0l-39 160h-209l-38 -160h-151l203 720h192l200 -720h-158zM227 271h154l-75 312zM154 783l96 180h116l96 -180h-69l-85 106l-86 -106h-68z" />
    <glyph glyph-name="Adieresis" unicode="&#xc4;" horiz-adv-x="616" 
d="M447 0l-39 160h-209l-38 -160h-151l203 720h192l200 -720h-158zM227 271h154l-75 312zM168 812v119h110v-119h-110zM338 812v119h110v-119h-110z" />
    <glyph glyph-name="Agrave" unicode="&#xc0;" horiz-adv-x="616" 
d="M447 0l-39 160h-209l-38 -160h-151l203 720h192l200 -720h-158zM227 271h154l-75 312zM165 963h126l96 -180h-69z" />
    <glyph glyph-name="Aring" unicode="&#xc5;" horiz-adv-x="616" 
d="M447 0l-39 160h-209l-38 -160h-151l205 720h33c-45 25 -68 63 -68 113c0 72 58 130 130 130c73 0 130 -58 130 -130c0 -50 -23 -88 -70 -113h35l200 -720h-158zM227 271h154l-75 312zM249 833c0 -35 26 -62 61 -62c34 0 62 27 62 62s-28 61 -62 61c-35 0 -61 -26 -61 -61
z" />
    <glyph glyph-name="Atilde" unicode="&#xc3;" horiz-adv-x="616" 
d="M447 0l-39 160h-209l-38 -160h-151l203 720h192l200 -720h-158zM227 271h154l-75 312zM452 940c-16 -80 -45 -119 -95 -119c-10 0 -21 1 -33 5l-40 13c-13 4 -23 5 -30 5c-20 0 -31 -11 -36 -38h-54c15 78 44 115 93 115c11 0 25 -2 40 -7l41 -12c8 -3 16 -4 25 -4
c20 0 31 14 35 42h54z" />
    <glyph glyph-name="Ccedilla" unicode="&#xc7;" horiz-adv-x="560" 
d="M520 246c1 -11 1 -22 1 -33c0 -144 -81 -224 -224 -224c-71 0 -130 21 -162 49c-72 62 -82 169 -82 339c0 119 8 206 50 269c35 53 102 83 193 83c145 0 220 -74 220 -221v-14h-151v14c0 76 -23 112 -72 112c-84 0 -89 -89 -89 -273c0 -167 12 -246 91 -246
c49 0 73 40 73 120c0 8 -1 16 -1 25h153zM157 -214v63c57 -15 98 -21 125 -21c34 0 49 11 49 36s-18 34 -59 34c-9 0 -18 0 -28 -1v103h50v-44h7c76 0 115 -31 115 -93c0 -65 -42 -98 -129 -98c-30 0 -74 6 -130 21z" />
    <glyph glyph-name="Eacute" unicode="&#xc9;" horiz-adv-x="499" 
d="M64 0v720h389v-111h-237v-172h218v-111h-218v-210h246v-116h-398zM402 963l-153 -180h-69l96 180h126z" />
    <glyph glyph-name="Ecircumflex" unicode="&#xca;" horiz-adv-x="499" 
d="M64 0v720h389v-111h-237v-172h218v-111h-218v-210h246v-116h-398zM105 783l96 180h116l96 -180h-69l-85 106l-86 -106h-68z" />
    <glyph glyph-name="Edieresis" unicode="&#xcb;" horiz-adv-x="499" 
d="M64 0v720h389v-111h-237v-172h218v-111h-218v-210h246v-116h-398zM119 812v119h110v-119h-110zM289 812v119h110v-119h-110z" />
    <glyph glyph-name="Egrave" unicode="&#xc8;" horiz-adv-x="499" 
d="M64 0v720h389v-111h-237v-172h218v-111h-218v-210h246v-116h-398zM116 963h126l96 -180h-69z" />
    <glyph glyph-name="Eth" unicode="&#xd0;" horiz-adv-x="623" 
d="M81 325h-81v110h81v285h238c192 0 252 -102 252 -360s-60 -360 -252 -360h-238v325zM234 325v-212h65c112 0 126 77 126 249s-14 249 -126 249h-65v-176h103v-110h-103z" />
    <glyph glyph-name="Euro" unicode="&#x20ac;" 
d="M331 203h138v-12c0 -127 -78 -202 -197 -202c-139 0 -207 86 -214 264h-68l32 71h31v70h-72l32 72h45c5 178 74 263 214 263c126 0 193 -68 193 -200v-14h-137v15c0 64 -18 94 -59 94c-50 0 -72 -51 -73 -158h177l-32 -72h-145v-70h114l-32 -71h-82v-19
c0 -89 28 -140 74 -140c37 0 61 34 61 101v8z" />
    <glyph glyph-name="Iacute" unicode="&#xcd;" horiz-adv-x="278" 
d="M66 0v720h146v-720h-146zM282 963l-153 -180h-69l96 180h126z" />
    <glyph glyph-name="Icircumflex" unicode="&#xce;" horiz-adv-x="278" 
d="M66 0v720h146v-720h-146zM-15 783l96 180h116l96 -180h-69l-85 106l-86 -106h-68z" />
    <glyph glyph-name="Idieresis" unicode="&#xcf;" horiz-adv-x="278" 
d="M66 0v720h146v-720h-146zM-1 812v119h110v-119h-110zM169 812v119h110v-119h-110z" />
    <glyph glyph-name="Igrave" unicode="&#xcc;" horiz-adv-x="278" 
d="M66 0v720h146v-720h-146zM-4 963h126l96 -180h-69z" />
    <glyph glyph-name="Ntilde" unicode="&#xd1;" horiz-adv-x="662" 
d="M64 0v720h202l138 -374c32 -86 57 -169 74 -250c-7 67 -10 136 -11 209l-8 415h139v-720h-197l-146 394c-19 52 -44 132 -73 243c7 -90 11 -159 12 -208l8 -429h-138zM475 940c-16 -80 -45 -119 -95 -119c-10 0 -21 1 -33 5l-40 13c-13 4 -23 5 -30 5
c-20 0 -31 -11 -36 -38h-54c15 78 44 115 93 115c11 0 25 -2 40 -7l41 -12c8 -3 16 -4 25 -4c20 0 31 14 35 42h54z" />
    <glyph glyph-name="Oacute" unicode="&#xd3;" horiz-adv-x="593" 
d="M203 362c0 -178 11 -261 92 -261c86 0 94 84 94 268c0 172 -12 248 -92 248c-82 0 -94 -77 -94 -255zM297 -11c-71 0 -130 21 -162 49c-68 59 -83 164 -83 330c0 127 9 217 50 278c35 53 103 83 194 83c72 0 130 -20 165 -51c65 -57 79 -153 79 -301
c0 -138 -5 -235 -51 -304c-35 -52 -104 -84 -192 -84zM440 963l-153 -180h-69l96 180h126z" />
    <glyph glyph-name="Ocircumflex" unicode="&#xd4;" horiz-adv-x="593" 
d="M203 362c0 -178 11 -261 92 -261c86 0 94 84 94 268c0 172 -12 248 -92 248c-82 0 -94 -77 -94 -255zM297 -11c-71 0 -130 21 -162 49c-68 59 -83 164 -83 330c0 127 9 217 50 278c35 53 103 83 194 83c72 0 130 -20 165 -51c65 -57 79 -153 79 -301
c0 -138 -5 -235 -51 -304c-35 -52 -104 -84 -192 -84zM143 783l96 180h116l96 -180h-69l-85 106l-86 -106h-68z" />
    <glyph glyph-name="Odieresis" unicode="&#xd6;" horiz-adv-x="593" 
d="M203 362c0 -178 11 -261 92 -261c86 0 94 84 94 268c0 172 -12 248 -92 248c-82 0 -94 -77 -94 -255zM297 -11c-71 0 -130 21 -162 49c-68 59 -83 164 -83 330c0 127 9 217 50 278c35 53 103 83 194 83c72 0 130 -20 165 -51c65 -57 79 -153 79 -301
c0 -138 -5 -235 -51 -304c-35 -52 -104 -84 -192 -84zM157 812v119h110v-119h-110zM327 812v119h110v-119h-110z" />
    <glyph glyph-name="Ograve" unicode="&#xd2;" horiz-adv-x="593" 
d="M203 362c0 -178 11 -261 92 -261c86 0 94 84 94 268c0 172 -12 248 -92 248c-82 0 -94 -77 -94 -255zM297 -11c-71 0 -130 21 -162 49c-68 59 -83 164 -83 330c0 127 9 217 50 278c35 53 103 83 194 83c72 0 130 -20 165 -51c65 -57 79 -153 79 -301
c0 -138 -5 -235 -51 -304c-35 -52 -104 -84 -192 -84zM154 963h126l96 -180h-69z" />
    <glyph glyph-name="Otilde" unicode="&#xd5;" horiz-adv-x="593" 
d="M203 362c0 -178 11 -261 92 -261c86 0 94 84 94 268c0 172 -12 248 -92 248c-82 0 -94 -77 -94 -255zM297 -11c-71 0 -130 21 -162 49c-68 59 -83 164 -83 330c0 127 9 217 50 278c35 53 103 83 194 83c72 0 130 -20 165 -51c65 -57 79 -153 79 -301
c0 -138 -5 -235 -51 -304c-35 -52 -104 -84 -192 -84zM441 940c-16 -80 -45 -119 -95 -119c-10 0 -21 1 -33 5l-40 13c-13 4 -23 5 -30 5c-20 0 -31 -11 -36 -38h-54c15 78 44 115 93 115c11 0 25 -2 40 -7l41 -12c8 -3 16 -4 25 -4c20 0 31 14 35 42h54z" />
    <glyph glyph-name="Scaron" unicode="&#x160;" horiz-adv-x="551" 
d="M45 222h153v-19c0 -73 22 -103 82 -103c45 0 75 30 75 79c0 54 -41 78 -105 120c-62 40 -104 69 -125 88c-48 44 -69 79 -69 147c0 120 88 198 228 198c144 0 217 -67 217 -198v-19h-149v4c0 68 -25 102 -73 102c-45 0 -73 -29 -73 -74c0 -70 71 -98 175 -163
c85 -54 126 -101 126 -185c0 -139 -82 -211 -244 -211c-151 0 -219 65 -219 209c0 8 1 16 1 25zM122 963h68l86 -106l85 106h69l-96 -180h-116z" />
    <glyph glyph-name="Thorn" unicode="&#xde;" horiz-adv-x="556" 
d="M64 720h157v-145h85c162 0 225 -47 225 -215c0 -77 -19 -135 -51 -169c-42 -44 -93 -46 -157 -46h-102v-145h-157v720zM282 461h-63v-202h50c80 0 109 17 109 103c0 79 -26 99 -96 99z" />
    <glyph glyph-name="Uacute" unicode="&#xda;" horiz-adv-x="618" 
d="M554 720v-451c0 -194 -64 -281 -245 -281c-169 0 -245 84 -245 260v472h150v-433c0 -128 5 -190 97 -190c84 0 95 62 95 190v433h148zM452 963l-153 -180h-69l96 180h126z" />
    <glyph glyph-name="Ucircumflex" unicode="&#xdb;" horiz-adv-x="618" 
d="M554 720v-451c0 -194 -64 -281 -245 -281c-169 0 -245 84 -245 260v472h150v-433c0 -128 5 -190 97 -190c84 0 95 62 95 190v433h148zM155 783l96 180h116l96 -180h-69l-85 106l-86 -106h-68z" />
    <glyph glyph-name="Udieresis" unicode="&#xdc;" horiz-adv-x="618" 
d="M554 720v-451c0 -194 -64 -281 -245 -281c-169 0 -245 84 -245 260v472h150v-433c0 -128 5 -190 97 -190c84 0 95 62 95 190v433h148zM169 812v119h110v-119h-110zM339 812v119h110v-119h-110z" />
    <glyph glyph-name="Ugrave" unicode="&#xd9;" horiz-adv-x="618" 
d="M554 720v-451c0 -194 -64 -281 -245 -281c-169 0 -245 84 -245 260v472h150v-433c0 -128 5 -190 97 -190c84 0 95 62 95 190v433h148zM166 963h126l96 -180h-69z" />
    <glyph glyph-name="Yacute" unicode="&#xdd;" horiz-adv-x="535" 
d="M183 0v271l-188 449h167l104 -300l116 300h157l-203 -449v-271h-153zM411 963l-153 -180h-69l96 180h126z" />
    <glyph glyph-name="Ydieresis" unicode="&#x178;" horiz-adv-x="535" 
d="M183 0v271l-188 449h167l104 -300l116 300h157l-203 -449v-271h-153zM128 812v119h110v-119h-110zM298 812v119h110v-119h-110z" />
    <glyph glyph-name="Zcaron" unicode="&#x17d;" horiz-adv-x="463" 
d="M2 0v124l298 480h-284v116h435v-128l-294 -474h304v-118h-459zM78 963h68l86 -106l85 106h69l-96 -180h-116z" />
    <glyph glyph-name="aacute" unicode="&#xe1;" horiz-adv-x="486" 
d="M303 249c-96 0 -133 -20 -133 -92c0 -50 21 -78 54 -78c49 0 79 42 79 126v44zM50 371v10c0 86 67 133 197 133c128 0 185 -45 185 -146v-250c0 -42 3 -82 10 -118h-125l-11 57c-25 -36 -79 -61 -135 -61c-83 0 -135 60 -135 157c0 115 70 164 223 170l44 2v23
c0 65 -13 94 -56 94c-44 0 -67 -24 -67 -71h-130zM401 745l-153 -180h-69l96 180h126z" />
    <glyph glyph-name="acircumflex" unicode="&#xe2;" horiz-adv-x="486" 
d="M303 249c-96 0 -133 -20 -133 -92c0 -50 21 -78 54 -78c49 0 79 42 79 126v44zM50 371v10c0 86 67 133 197 133c128 0 185 -45 185 -146v-250c0 -42 3 -82 10 -118h-125l-11 57c-25 -36 -79 -61 -135 -61c-83 0 -135 60 -135 157c0 115 70 164 223 170l44 2v23
c0 65 -13 94 -56 94c-44 0 -67 -24 -67 -71h-130zM104 565l96 180h116l96 -180h-69l-85 106l-86 -106h-68z" />
    <glyph glyph-name="adieresis" unicode="&#xe4;" horiz-adv-x="486" 
d="M303 249c-96 0 -133 -20 -133 -92c0 -50 21 -78 54 -78c49 0 79 42 79 126v44zM50 371v10c0 86 67 133 197 133c128 0 185 -45 185 -146v-250c0 -42 3 -82 10 -118h-125l-11 57c-25 -36 -79 -61 -135 -61c-83 0 -135 60 -135 157c0 115 70 164 223 170l44 2v23
c0 65 -13 94 -56 94c-44 0 -67 -24 -67 -71h-130zM118 594v119h110v-119h-110zM288 594v119h110v-119h-110z" />
    <glyph glyph-name="agrave" unicode="&#xe0;" horiz-adv-x="486" 
d="M303 249c-96 0 -133 -20 -133 -92c0 -50 21 -78 54 -78c49 0 79 42 79 126v44zM50 371v10c0 86 67 133 197 133c128 0 185 -45 185 -146v-250c0 -42 3 -82 10 -118h-125l-11 57c-25 -36 -79 -61 -135 -61c-83 0 -135 60 -135 157c0 115 70 164 223 170l44 2v23
c0 65 -13 94 -56 94c-44 0 -67 -24 -67 -71h-130zM115 745h126l96 -180h-69z" />
    <glyph glyph-name="aring" unicode="&#xe5;" horiz-adv-x="486" 
d="M50 371v10c0 86 67 133 197 133c128 0 185 -45 185 -146v-250c0 -42 3 -82 10 -118h-125l-11 57c-25 -36 -79 -61 -135 -61c-83 0 -135 60 -135 157c0 115 70 164 223 170l44 2v23c0 65 -13 94 -56 94c-44 0 -67 -24 -67 -71h-130zM303 249c-96 0 -133 -20 -133 -92
c0 -50 21 -78 54 -78c49 0 79 42 79 126v44zM120 672c0 72 57 129 130 129s130 -57 130 -129c0 -73 -57 -130 -130 -130s-130 57 -130 130zM189 671c0 -35 26 -61 61 -61c34 0 62 26 62 61s-28 62 -62 62c-35 0 -61 -27 -61 -62z" />
    <glyph glyph-name="atilde" unicode="&#xe3;" horiz-adv-x="486" 
d="M303 249c-96 0 -133 -20 -133 -92c0 -50 21 -78 54 -78c49 0 79 42 79 126v44zM50 371v10c0 86 67 133 197 133c128 0 185 -45 185 -146v-250c0 -42 3 -82 10 -118h-125l-11 57c-25 -36 -79 -61 -135 -61c-83 0 -135 60 -135 157c0 115 70 164 223 170l44 2v23
c0 65 -13 94 -56 94c-44 0 -67 -24 -67 -71h-130zM402 722c-16 -80 -45 -119 -95 -119c-10 0 -21 1 -33 5l-40 13c-13 4 -23 5 -30 5c-20 0 -31 -11 -36 -38h-54c15 78 44 115 93 115c11 0 25 -2 40 -7l41 -12c8 -3 16 -4 25 -4c20 0 31 14 35 42h54z" />
    <glyph glyph-name="brokenbar" unicode="&#xa6;" horiz-adv-x="500" 
d="M200 699h101v-370h-101v370zM200 199h101v-370h-101v370z" />
    <glyph glyph-name="ccedilla" unicode="&#xe7;" horiz-adv-x="486" 
d="M311 186h140c0 -131 -67 -197 -204 -197c-166 0 -208 78 -208 273c0 175 55 252 208 252c131 0 204 -67 204 -184v-5h-140v5c0 64 -21 96 -65 96c-56 0 -65 -50 -65 -170c0 -126 11 -180 66 -180c41 0 64 35 64 101v9zM106 -214v63c57 -15 98 -21 125 -21
c34 0 49 11 49 36s-18 34 -59 34c-9 0 -18 0 -28 -1v103h50v-44h7c76 0 115 -31 115 -93c0 -65 -42 -98 -129 -98c-30 0 -74 6 -130 21z" />
    <glyph glyph-name="copyright" unicode="&#xa9;" horiz-adv-x="833" 
d="M416 722c99 0 189 -37 259 -107c68 -68 105 -159 105 -257c0 -100 -37 -187 -105 -254c-72 -70 -164 -109 -259 -109c-96 0 -185 38 -255 108c-69 69 -107 159 -107 255s37 187 107 258c68 69 156 106 255 106zM417 662c-83 0 -157 -30 -214 -88
c-58 -59 -89 -135 -89 -215c0 -81 31 -156 89 -214s134 -89 214 -89s156 31 216 90c57 56 87 130 87 213c0 82 -31 157 -88 214c-58 58 -132 89 -215 89zM592 438h-92c-5 46 -36 72 -84 72c-57 0 -95 -53 -95 -151c0 -96 35 -147 99 -147c47 0 77 28 83 79h94
c-5 -90 -76 -150 -180 -150c-120 0 -196 81 -196 215c0 136 79 220 197 220c100 0 169 -56 174 -138z" />
    <glyph glyph-name="degree" unicode="&#xb0;" horiz-adv-x="329" 
d="M165 715c82 0 148 -67 148 -149c0 -81 -66 -148 -149 -148c-82 0 -147 65 -147 148s66 149 148 149zM165 652c-47 0 -86 -38 -86 -85c0 -48 38 -86 86 -86s85 40 85 86c0 47 -38 85 -85 85z" />
    <glyph glyph-name="divide" unicode="&#xf7;" horiz-adv-x="833" 
d="M417 564c40 0 74 -33 74 -74c0 -40 -32 -74 -74 -74c-41 0 -74 33 -74 74c0 42 34 74 74 74zM124 347h585v-97h-585v97zM417 180c40 0 74 -33 74 -74c0 -39 -33 -73 -74 -73s-74 32 -74 73c0 42 34 74 74 74z" />
    <glyph glyph-name="eacute" unicode="&#xe9;" horiz-adv-x="486" 
d="M311 186h140c0 -131 -67 -197 -204 -197c-166 0 -208 78 -208 273c0 175 55 252 208 252c138 0 204 -66 204 -202v-76h-268v-52c0 -74 18 -108 63 -108c42 0 65 34 65 101v9zM183 315h126v42c0 48 -23 75 -62 75c-42 0 -64 -33 -64 -100v-17zM393 745l-153 -180h-69
l96 180h126z" />
    <glyph glyph-name="ecircumflex" unicode="&#xea;" horiz-adv-x="486" 
d="M311 186h140c0 -131 -67 -197 -204 -197c-166 0 -208 78 -208 273c0 175 55 252 208 252c138 0 204 -66 204 -202v-76h-268v-52c0 -74 18 -108 63 -108c42 0 65 34 65 101v9zM183 315h126v42c0 48 -23 75 -62 75c-42 0 -64 -33 -64 -100v-17zM96 565l96 180h116l96 -180
h-69l-85 106l-86 -106h-68z" />
    <glyph glyph-name="edieresis" unicode="&#xeb;" horiz-adv-x="486" 
d="M311 186h140c0 -131 -67 -197 -204 -197c-166 0 -208 78 -208 273c0 175 55 252 208 252c138 0 204 -66 204 -202v-76h-268v-52c0 -74 18 -108 63 -108c42 0 65 34 65 101v9zM183 315h126v42c0 48 -23 75 -62 75c-42 0 -64 -33 -64 -100v-17zM110 594v119h110v-119h-110z
M280 594v119h110v-119h-110z" />
    <glyph glyph-name="egrave" unicode="&#xe8;" horiz-adv-x="486" 
d="M311 186h140c0 -131 -67 -197 -204 -197c-166 0 -208 78 -208 273c0 175 55 252 208 252c138 0 204 -66 204 -202v-76h-268v-52c0 -74 18 -108 63 -108c42 0 65 34 65 101v9zM183 315h126v42c0 48 -23 75 -62 75c-42 0 -64 -33 -64 -100v-17zM107 745h126l96 -180h-69z
" />
    <glyph glyph-name="eth" unicode="&#xf0;" horiz-adv-x="451" 
d="M166 228c0 -113 11 -162 60 -162s59 48 59 162c0 109 -8 154 -60 154c-51 0 -59 -46 -59 -154zM275 456c-7 33 -19 64 -39 93l-126 -50l-24 57l111 44c-29 29 -63 52 -103 71l31 59c49 -16 100 -48 155 -96l115 45l24 -57l-100 -40c60 -99 93 -223 93 -345
c0 -177 -38 -249 -187 -249s-186 71 -186 247c0 157 48 226 186 226c17 0 34 -2 50 -5z" />
    <glyph glyph-name="iacute" unicode="&#xed;" horiz-adv-x="237" 
d="M189 502v-502h-141v502h141zM262 745l-153 -180h-69l96 180h126z" />
    <glyph glyph-name="icircumflex" unicode="&#xee;" horiz-adv-x="237" 
d="M189 502v-502h-141v502h141zM-35 565l96 180h116l96 -180h-69l-85 106l-86 -106h-68z" />
    <glyph glyph-name="idieresis" unicode="&#xef;" horiz-adv-x="237" 
d="M189 502v-502h-141v502h141zM-21 594v119h110v-119h-110zM149 594v119h110v-119h-110z" />
    <glyph glyph-name="igrave" unicode="&#xec;" horiz-adv-x="237" 
d="M189 502v-502h-141v502h141zM-24 745h126l96 -180h-69z" />
    <glyph glyph-name="logicalnot" unicode="&#xac;" horiz-adv-x="833" 
d="M124 422h585v-245h-97v149h-488v96z" />
    <glyph glyph-name="minus" unicode="&#x2212;" horiz-adv-x="833" 
d="M124 348h585v-99h-585v99z" />
    <glyph glyph-name="mu" unicode="&#xb5;" horiz-adv-x="610" 
d="M100 533h141l-37 -212c-12 -66 -15 -111 -15 -131c0 -61 27 -90 83 -90c70 0 99 57 121 182l44 251h141l-94 -533h-131l9 57c-27 -50 -59 -73 -105 -73c-44 0 -77 19 -104 59l-44 -257h-140z" />
    <glyph glyph-name="multiply" unicode="&#xd7;" horiz-adv-x="833" 
d="M203 587l220 -220l220 220l69 -68l-220 -221l220 -220l-69 -68l-220 220l-220 -220l-68 68l220 220l-220 221z" />
    <glyph glyph-name="ntilde" unicode="&#xf1;" horiz-adv-x="492" 
d="M193 0h-141v412c0 27 0 57 -5 90h142l4 -52c23 42 62 64 112 64c88 0 136 -46 136 -132v-382h-141v343c0 56 -8 85 -47 85c-36 0 -60 -27 -60 -71v-357zM390 722c-16 -80 -45 -119 -95 -119c-10 0 -21 1 -33 5l-40 13c-13 4 -23 5 -30 5c-20 0 -31 -11 -36 -38h-54
c15 78 44 115 93 115c11 0 25 -2 40 -7l41 -12c8 -3 16 -4 25 -4c20 0 31 14 35 42h54z" />
    <glyph glyph-name="oacute" unicode="&#xf3;" 
d="M181 256c0 -126 11 -180 66 -180s66 54 66 180c0 121 -9 170 -67 170c-56 0 -65 -50 -65 -170zM250 514c150 0 204 -78 204 -252c0 -195 -41 -273 -207 -273s-208 78 -208 273c0 176 55 252 211 252zM390 745l-153 -180h-69l96 180h126z" />
    <glyph glyph-name="ocircumflex" unicode="&#xf4;" 
d="M181 256c0 -126 11 -180 66 -180s66 54 66 180c0 121 -9 170 -67 170c-56 0 -65 -50 -65 -170zM250 514c150 0 204 -78 204 -252c0 -195 -41 -273 -207 -273s-208 78 -208 273c0 176 55 252 211 252zM93 565l96 180h116l96 -180h-69l-85 106l-86 -106h-68z" />
    <glyph glyph-name="odieresis" unicode="&#xf6;" 
d="M181 256c0 -126 11 -180 66 -180s66 54 66 180c0 121 -9 170 -67 170c-56 0 -65 -50 -65 -170zM250 514c150 0 204 -78 204 -252c0 -195 -41 -273 -207 -273s-208 78 -208 273c0 176 55 252 211 252zM107 594v119h110v-119h-110zM277 594v119h110v-119h-110z" />
    <glyph glyph-name="ograve" unicode="&#xf2;" 
d="M181 256c0 -126 11 -180 66 -180s66 54 66 180c0 121 -9 170 -67 170c-56 0 -65 -50 -65 -170zM250 514c150 0 204 -78 204 -252c0 -195 -41 -273 -207 -273s-208 78 -208 273c0 176 55 252 211 252zM104 745h126l96 -180h-69z" />
    <glyph glyph-name="onehalf" unicode="&#xbd;" horiz-adv-x="788" 
d="M123 306v297c-30 -20 -53 -34 -74 -40v73c29 10 57 31 87 60h75v-390h-88zM144 -12l415 720h85l-414 -720h-86zM505 0v71c112 119 168 197 168 234c0 23 -13 35 -36 35c-24 0 -37 -16 -37 -45v-12h-87c0 4 -1 8 -1 12c0 65 43 101 120 101c82 0 128 -35 128 -97
c0 -70 -60 -139 -163 -240h164v-59h-256z" />
    <glyph glyph-name="onequarter" unicode="&#xbc;" horiz-adv-x="788" 
d="M123 306v297c-30 -20 -53 -34 -74 -40v73c29 10 57 31 87 60h75v-390h-88zM144 -12l415 720h85l-414 -720h-86zM653 148l3 193c-12 -31 -24 -60 -37 -90l-48 -103h82zM642 0v91h-137v79l107 220h116v-242h33v-57h-33v-91h-86z" />
    <glyph glyph-name="onesuperior" unicode="&#xb9;" horiz-adv-x="325" 
d="M129 278v319c-31 -23 -56 -38 -78 -44v79c30 11 60 32 91 64h79v-418h-92z" />
    <glyph glyph-name="otilde" unicode="&#xf5;" 
d="M181 256c0 -126 11 -180 66 -180s66 54 66 180c0 121 -9 170 -67 170c-56 0 -65 -50 -65 -170zM250 514c150 0 204 -78 204 -252c0 -195 -41 -273 -207 -273s-208 78 -208 273c0 176 55 252 211 252zM391 722c-16 -80 -45 -119 -95 -119c-10 0 -21 1 -33 5l-40 13
c-13 4 -23 5 -30 5c-20 0 -31 -11 -36 -38h-54c15 78 44 115 93 115c11 0 25 -2 40 -7l41 -12c8 -3 16 -4 25 -4c20 0 31 14 35 42h54z" />
    <glyph glyph-name="plusminus" unicode="&#xb1;" horiz-adv-x="833" 
d="M367 597h99v-159h243v-97h-243v-159h-99v159h-243v97h243v159zM124 96h585v-97h-585v97z" />
    <glyph glyph-name="registered" unicode="&#xae;" horiz-adv-x="833" 
d="M416 722c100 0 191 -38 261 -109c67 -68 103 -158 103 -255c0 -100 -38 -190 -107 -257c-71 -69 -163 -106 -257 -106c-97 0 -188 39 -258 110c-68 69 -104 159 -104 253c0 65 17 128 53 189c65 110 178 175 309 175zM417 662c-82 0 -154 -29 -211 -86
c-59 -59 -92 -137 -92 -217s30 -155 87 -212c58 -59 135 -92 215 -92c79 0 155 32 215 89c57 55 89 131 89 209c0 87 -29 160 -86 218c-59 60 -133 91 -217 91zM266 567h158c115 0 172 -39 172 -116c0 -53 -33 -93 -88 -107l90 -180h-109l-77 165h-48v-165h-98v403zM364 505
v-117h48c56 0 83 17 83 57c0 42 -29 60 -88 60h-43z" />
    <glyph glyph-name="scaron" unicode="&#x161;" horiz-adv-x="449" 
d="M32 166h137v-10c0 -52 21 -81 51 -81c39 0 63 21 63 52c0 47 -48 64 -128 107c-78 42 -122 66 -122 141c0 83 71 141 182 141c121 0 184 -47 184 -136c0 -5 -1 -10 -1 -16h-132c1 6 1 11 1 16c0 40 -17 60 -51 60c-30 0 -51 -18 -51 -44c0 -43 59 -60 147 -112
c71 -42 105 -76 105 -142c0 -98 -72 -149 -215 -149c-110 0 -171 55 -171 153c0 6 0 13 1 20zM71 745h68l86 -106l85 106h69l-96 -180h-116z" />
    <glyph glyph-name="thorn" unicode="&#xfe;" horiz-adv-x="486" 
d="M52 720h138v-266c20 38 60 60 111 60c40 0 77 -16 99 -39c42 -45 47 -118 47 -232c0 -170 -34 -255 -138 -255c-51 0 -88 16 -118 54v-232h-139v910zM190 302v-109c0 -77 19 -115 59 -115c53 0 58 57 58 168v23c0 110 -2 161 -57 161c-51 0 -60 -40 -60 -128z" />
    <glyph glyph-name="threequarters" unicode="&#xbe;" horiz-adv-x="788" 
d="M28 414h87c3 -39 12 -55 41 -55c27 0 36 18 36 58c0 49 -14 64 -65 64c-4 0 -9 -1 -15 -1v62h6c55 0 69 9 69 57c0 34 -11 51 -36 51c-21 0 -34 -16 -34 -46v-3h-85c-1 4 -1 9 -1 12c0 61 40 89 122 89c87 0 122 -31 122 -106c0 -47 -18 -74 -57 -83
c50 -12 64 -40 64 -97c0 -79 -43 -117 -133 -117c-81 0 -121 33 -121 101v14zM144 -12l415 720h85l-414 -720h-86zM653 148l3 193c-12 -31 -24 -60 -37 -90l-48 -103h82zM642 0v91h-137v79l107 220h116v-242h33v-57h-33v-91h-86z" />
    <glyph glyph-name="threesuperior" unicode="&#xb3;" horiz-adv-x="325" 
d="M30 393h91c2 -41 12 -59 42 -59c29 0 38 20 38 63c0 53 -14 68 -68 68h-16v66h7c58 0 72 10 72 61c0 36 -12 54 -38 54c-21 0 -35 -16 -35 -48v-4h-89c-1 4 -1 9 -1 13c0 66 41 96 127 96c91 0 128 -34 128 -114c0 -51 -19 -80 -60 -90c53 -12 68 -42 68 -103
c0 -84 -45 -125 -140 -125c-85 0 -127 35 -127 107c0 5 0 10 1 15z" />
    <glyph glyph-name="trademark" unicode="&#x2122;" horiz-adv-x="833" 
d="M101 714h237v-55h-82v-212h-73v212h-82v55zM392 714h96l62 -162l60 162h96v-267h-66v200l-75 -200h-30l-77 200v-200h-66v267z" />
    <glyph glyph-name="twosuperior" unicode="&#xb2;" horiz-adv-x="325" 
d="M28 278v76c118 128 177 211 177 251c0 24 -14 37 -38 37c-26 0 -40 -17 -40 -48c0 -4 0 -8 1 -12h-92v12c0 70 45 109 125 109c86 0 134 -38 134 -105c0 -75 -62 -149 -170 -257h172v-63h-269z" />
    <glyph glyph-name="uacute" unicode="&#xfa;" horiz-adv-x="492" 
d="M297 502h142v-435c0 -20 0 -42 4 -66h-141l-5 53c-23 -42 -61 -65 -111 -65c-88 0 -136 47 -136 133v380h141v-342c0 -56 7 -85 46 -85c36 0 60 27 60 71v356zM389 745l-153 -180h-69l96 180h126z" />
    <glyph glyph-name="ucircumflex" unicode="&#xfb;" horiz-adv-x="492" 
d="M297 502h142v-435c0 -20 0 -42 4 -66h-141l-5 53c-23 -42 -61 -65 -111 -65c-88 0 -136 47 -136 133v380h141v-342c0 -56 7 -85 46 -85c36 0 60 27 60 71v356zM92 565l96 180h116l96 -180h-69l-85 106l-86 -106h-68z" />
    <glyph glyph-name="udieresis" unicode="&#xfc;" horiz-adv-x="492" 
d="M297 502h142v-435c0 -20 0 -42 4 -66h-141l-5 53c-23 -42 -61 -65 -111 -65c-88 0 -136 47 -136 133v380h141v-342c0 -56 7 -85 46 -85c36 0 60 27 60 71v356zM106 594v119h110v-119h-110zM276 594v119h110v-119h-110z" />
    <glyph glyph-name="ugrave" unicode="&#xf9;" horiz-adv-x="492" 
d="M297 502h142v-435c0 -20 0 -42 4 -66h-141l-5 53c-23 -42 -61 -65 -111 -65c-88 0 -136 47 -136 133v380h141v-342c0 -56 7 -85 46 -85c36 0 60 27 60 71v356zM103 745h126l96 -180h-69z" />
    <glyph glyph-name="yacute" unicode="&#xfd;" horiz-adv-x="451" 
d="M100 -190l55 178l-146 514h141l76 -360l90 360h137l-209 -692h-144zM369 745l-153 -180h-69l96 180h126z" />
    <glyph glyph-name="ydieresis" unicode="&#xff;" horiz-adv-x="451" 
d="M100 -190l55 178l-146 514h141l76 -360l90 360h137l-209 -692h-144zM86 594v119h110v-119h-110zM256 594v119h110v-119h-110z" />
    <glyph glyph-name="zcaron" unicode="&#x17e;" horiz-adv-x="396" 
d="M25 0v108l199 309h-188v85h334v-90l-199 -319h199v-93h-345zM44 745h68l86 -106l85 106h69l-96 -180h-116z" />
    </font>
</defs>
</svg>
