<svg 
 xmlns="http://www.w3.org/2000/svg"
 xmlns:xlink="http://www.w3.org/1999/xlink"
 width="65px" height="65px">
<defs>
<linearGradient id="PSgrad_0" x1="0%" x2="0%" y1="100%" y2="0%">
  <stop offset="0%" stop-color="rgb(0,0,0)" stop-opacity="0.34" />
  <stop offset="100%" stop-color="rgb(255,255,255)" stop-opacity="0.34" />
</linearGradient>

</defs>
<path fill-rule="evenodd"  fill="rgb(67, 172, 45)"
 d="M34.100,7.718 C18.131,12.134 8.766,28.660 13.182,44.629 C15.919,54.527 23.310,61.883 32.335,64.998 C18.143,64.933 5.145,55.514 1.176,41.163 C-3.609,23.863 6.537,5.960 23.837,1.176 C35.785,-2.129 48.019,1.691 56.022,10.068 C49.512,6.654 41.744,5.604 34.100,7.718 Z"/>
<path fill="url(#PSgrad_0)"
 d="M34.100,7.718 C18.131,12.134 8.766,28.660 13.182,44.629 C15.919,54.527 23.310,61.883 32.335,64.998 C18.143,64.933 5.145,55.514 1.176,41.163 C-3.609,23.863 6.537,5.960 23.837,1.176 C35.785,-2.129 48.019,1.691 56.022,10.068 C49.512,6.654 41.744,5.604 34.100,7.718 Z"/>
</svg>